<?xml version="1.0" encoding="UTF-8"?>
<svg xmlns="http://www.w3.org/2000/svg" width="91" height="36" viewBox="0 0 91 36" fill="none">
  <path d="M7.61614 6.93826L7.71281 6.97646L7.90617 7.12923L8.23487 7.35839L8.62158 7.62574L8.95028 7.8358L9.35632 8.08406L9.72369 8.29412L10.1877 8.54238L10.5164 8.71425L10.9612 8.92431L11.6379 9.21076L12.0826 9.38263L12.74 9.61179L13.3007 9.78366L14.0355 9.97463L14.5382 10.0892L15.2729 10.2229L16.2977 10.3566L17.0325 10.4139L17.5545 10.4329H18.4053L19.2754 10.3948L20.1841 10.2993L20.9382 10.1847L21.7116 10.0319L22.485 9.84095L23.1811 9.63089L23.8578 9.40173L24.3992 9.19167L25.018 8.92431L25.6947 8.59967L26.3134 8.27503L26.6035 8.10316L27.1062 7.79761L27.5896 7.47297L27.9183 7.24381L28.2276 7.01465L28.3243 6.93826H28.363L28.4403 7.22471L28.827 8.75244L29.1364 10.0128L29.3877 11.044L29.7551 12.5909L30.0645 13.9276L30.2965 14.9779L30.5285 16.0665L30.6832 16.8494L30.7606 17.3459L30.7992 17.8233V18.5108L30.7606 18.95L30.7025 19.3129L30.5865 19.8094L30.4125 20.325L30.1998 20.8024L30.0065 21.1653L29.7744 21.5281L29.5811 21.7954L29.4264 21.9864L29.2137 22.2347L29.059 22.3874L28.9237 22.5402H28.885V22.5784L28.7303 22.7121L28.5177 22.9031L28.1889 23.1513L27.9183 23.3423L27.5315 23.5714L27.0868 23.8006L26.6808 23.9725L26.4681 23.9534L25.9654 23.877L25.714 23.8579H24.6893L23.9932 23.9152L21.9823 24.1825L21.0735 24.2589H20.3968L20.2035 24.2016L20.1068 24.1443L19.9908 23.9152L19.9521 23.7433L19.9328 23.5523L19.9134 22.8076L19.8554 22.5975L19.7781 22.4447L19.6427 22.292L19.4494 22.1774L19.2947 22.1201L19.14 22.101H16.9358L16.7231 22.1392L16.4911 22.2538L16.3751 22.3492L16.2397 22.5593L16.1817 22.7312L16.1624 22.884L16.143 23.5332L16.1044 23.8579L16.0077 24.0488L15.8917 24.1825L15.7176 24.2398L15.621 24.2589H14.9636L14.1322 24.1825L12.7787 23.9916L11.9473 23.8961L11.4252 23.8579H10.3618L9.85904 23.9152L9.47233 23.9916H9.33698L8.89227 23.8006L8.44756 23.5714L8.13819 23.3805L7.75148 23.1131L7.50013 22.9031L7.28744 22.7312L6.78472 22.2347L6.43668 21.8145L6.20466 21.4899L5.9533 21.0889L5.77928 20.7642L5.60526 20.3632L5.45058 19.924L5.33457 19.4848L5.23789 18.9882L5.19922 18.6063V17.7088L5.23789 17.2695L5.3539 16.6203L5.6246 15.2835L6.03064 13.4693L6.35934 12.0562L6.59136 11.1013L6.92006 9.74547L7.24877 8.4087L7.55813 7.18652L7.61614 6.93826ZM10.1297 13.9467L9.93638 14.0231L9.7817 14.1377L9.54967 14.4432L9.33698 14.8061L9.16297 15.1689L9.00828 15.6272L8.93094 15.9901L8.89227 16.3338V16.8876L8.96961 17.4223L9.08562 17.8424L9.27898 18.3008L9.47233 18.6445L9.66568 18.9119L9.8397 19.1219L10.0137 19.3129L10.1491 19.4466L10.3618 19.6184L10.6518 19.8285L10.9031 19.9813L11.2705 20.1531L11.6186 20.2868L12.0246 20.3823L12.392 20.4396L12.6047 20.4587H12.972L13.4747 20.4014L13.9775 20.2868L14.4415 20.1149L14.8476 19.9049L15.1763 19.6757L15.3696 19.5229L15.563 19.3511V19.3129H15.6016L15.737 19.1601L15.8917 18.9882L16.1044 18.6827L16.2784 18.3771L16.4331 18.0525L16.5877 17.556L16.6457 17.3077L16.6844 17.0022L16.7038 16.6775L16.6651 16.4866L16.5491 16.2956L16.3944 16.181L16.1817 16.1046H16.027L15.4276 16.2192L15.2536 16.2383H14.2868L13.9001 16.181L13.4167 16.0665L12.9334 15.8946L12.4306 15.6463L12.0633 15.4172L11.7926 15.2071L11.5605 14.997L11.4059 14.8634L11.2125 14.6533L10.9998 14.386L10.8451 14.195L10.7485 14.0995L10.5744 13.9849L10.4778 13.9467H10.1297ZM25.308 13.9467L25.1533 14.004L24.9793 14.1186L24.8439 14.2714L24.6506 14.5387L24.4572 14.7488L24.3219 14.9016L24.0512 15.1498L23.7225 15.3981L23.3551 15.6272L22.9104 15.8564L22.5044 16.0092L22.0983 16.1237L21.6149 16.2192L21.4409 16.2383H20.4741L20.0874 16.181L19.6814 16.1046H19.546L19.3527 16.181L19.1787 16.3338L19.082 16.5248L19.0627 16.6203V16.8685L19.1207 17.2886L19.2173 17.7279L19.3914 18.2053L19.6041 18.6063L19.8554 18.9691L20.0294 19.1601L20.1648 19.3129L20.3195 19.4657L20.5322 19.6375L20.7642 19.8094L21.1315 20.0195L21.4602 20.1722L21.9243 20.325L22.4077 20.4205L22.7944 20.4587H23.1424L23.6258 20.4014L24.1285 20.2868L24.4379 20.1722L24.7859 20.0195L25.076 19.8476L25.3273 19.6757L25.54 19.5039L25.83 19.2365L26.0621 18.9691L26.2748 18.6636L26.4294 18.3962L26.6035 18.0334L26.7388 17.6324L26.8355 17.2123L26.8741 16.773V16.4484L26.8355 16.0092L26.7388 15.5699L26.6228 15.2262L26.4681 14.8825L26.2748 14.5387L26.0814 14.2714L25.9074 14.0804L25.7334 13.9849L25.6367 13.9467H25.308Z" fill="#16AB64"></path>
  <path d="M17.535 22.9031H18.5405L19.1012 22.9222L19.1205 23.4569L19.1592 23.877L19.2365 24.2016L19.3719 24.5072L19.5266 24.6982L19.7199 24.8509L19.9713 24.9655L20.2806 25.0419L20.416 25.061H21.1894L22.0208 24.9846L23.4323 24.7936L24.2444 24.6982L24.7664 24.66H25.7139L26.1779 24.7173L26.6226 24.8127L27.0093 24.9464L27.4154 25.1374L27.7634 25.3665L28.0341 25.5957L28.2468 25.8058L28.4982 26.1304L28.6722 26.4169L28.8462 26.7797L28.9816 27.1425L29.0782 27.4863V27.5818L28.9235 27.7345L28.7109 27.9064L28.4788 28.0974L27.8214 28.5939L27.4347 28.8612L27.0287 29.1286H26.99L26.9707 28.7085L26.9127 28.3265L26.7967 27.9828L26.6613 27.7727L26.5646 27.6581L26.3519 27.5054L26.1199 27.3908L25.7719 27.2953L25.5399 27.2571L25.3078 27.238H24.6504L23.993 27.2953L22.3495 27.5245L21.6728 27.5818L21.3248 27.6008H20.6674L20.068 27.5436L19.6039 27.429L19.2945 27.3144L18.9852 27.1616L18.6565 26.9325L18.4245 26.7224L18.2504 26.5123L18.0571 26.245L17.8251 26.5696L17.593 26.8179L17.3803 26.9898L17.1097 27.1616L16.8003 27.3144L16.2782 27.4863L15.8335 27.5627L15.4081 27.6008H14.6927L13.842 27.5436L12.8945 27.4099L12.0438 27.2953L11.3477 27.238H10.7677L10.4003 27.2762L10.0136 27.3717L9.78155 27.4672L9.54953 27.6199L9.39485 27.7727L9.24016 28.021L9.14349 28.2883L9.08548 28.5366L9.06615 28.6894L9.04681 29.2623L8.95013 29.2241L8.42808 28.8803L8.06071 28.6321L7.65467 28.3265L7.48065 28.1928L7.26796 28.021L6.93926 27.7536L6.91992 27.7345L6.93926 27.5627L7.03593 27.1807L7.20995 26.7224L7.36463 26.4169L7.51932 26.1686L7.75134 25.8631L7.92536 25.6721L8.13805 25.4811L8.42808 25.2711L8.75678 25.0801L9.12415 24.9273L9.62687 24.7745L10.0716 24.6982L10.439 24.66H11.4057L12.1018 24.7173L12.9912 24.8318L14.1127 24.9846L14.6154 25.0419L14.8861 25.061H15.6595L15.9689 25.0037L16.2976 24.87L16.5296 24.6982L16.6843 24.5072L16.8196 24.2398L16.9163 23.877L16.955 23.6097L16.9936 22.9222L17.535 22.9031Z" fill="#16AB64"></path>
  <path d="M39.14 26.44V15.55H40.85V16.735H40.94C41.04 16.585 41.185 16.405 41.375 16.195C41.575 15.985 41.84 15.8 42.17 15.64C42.51 15.48 42.935 15.4 43.445 15.4C44.035 15.4 44.555 15.52 45.005 15.76C45.455 15.99 45.825 16.305 46.115 16.705C46.415 17.095 46.635 17.535 46.775 18.025C46.925 18.515 47 19.015 47 19.525C47 20.035 46.925 20.535 46.775 21.025C46.635 21.515 46.415 21.96 46.115 22.36C45.825 22.75 45.455 23.065 45.005 23.305C44.555 23.535 44.035 23.65 43.445 23.65C42.935 23.65 42.51 23.57 42.17 23.41C41.84 23.25 41.575 23.065 41.375 22.855C41.185 22.645 41.04 22.465 40.94 22.315H40.85V26.44H39.14ZM40.85 19.525C40.85 19.975 40.93 20.405 41.09 20.815C41.26 21.225 41.505 21.565 41.825 21.835C42.155 22.095 42.565 22.225 43.055 22.225C43.555 22.225 43.965 22.095 44.285 21.835C44.615 21.565 44.86 21.225 45.02 20.815C45.19 20.405 45.275 19.975 45.275 19.525C45.275 19.075 45.19 18.645 45.02 18.235C44.86 17.825 44.615 17.49 44.285 17.23C43.965 16.96 43.555 16.825 43.055 16.825C42.565 16.825 42.155 16.96 41.825 17.23C41.505 17.49 41.26 17.825 41.09 18.235C40.93 18.645 40.85 19.075 40.85 19.525ZM52.2102 15.4C52.7102 15.4 53.1252 15.48 53.4552 15.64C53.7952 15.8 54.0652 15.985 54.2652 16.195C54.4652 16.405 54.6102 16.585 54.7002 16.735H54.7902V15.55H56.5002V23.5H54.7902V22.315H54.7002C54.6102 22.465 54.4652 22.645 54.2652 22.855C54.0652 23.065 53.7952 23.25 53.4552 23.41C53.1252 23.57 52.7102 23.65 52.2102 23.65C51.6102 23.65 51.0852 23.535 50.6352 23.305C50.1952 23.065 49.8252 22.75 49.5252 22.36C49.2252 21.96 49.0002 21.515 48.8502 21.025C48.7102 20.535 48.6402 20.035 48.6402 19.525C48.6402 19.015 48.7102 18.515 48.8502 18.025C49.0002 17.535 49.2252 17.095 49.5252 16.705C49.8252 16.305 50.1952 15.99 50.6352 15.76C51.0852 15.52 51.6102 15.4 52.2102 15.4ZM52.5852 16.825C52.0952 16.825 51.6852 16.96 51.3552 17.23C51.0252 17.49 50.7752 17.825 50.6052 18.235C50.4452 18.645 50.3652 19.075 50.3652 19.525C50.3652 19.975 50.4452 20.405 50.6052 20.815C50.7752 21.225 51.0252 21.565 51.3552 21.835C51.6852 22.095 52.0952 22.225 52.5852 22.225C53.0752 22.225 53.4802 22.095 53.8002 21.835C54.1302 21.565 54.3752 21.225 54.5352 20.815C54.7052 20.405 54.7902 19.975 54.7902 19.525C54.7902 19.075 54.7052 18.645 54.5352 18.235C54.3752 17.825 54.1302 17.49 53.8002 17.23C53.4802 16.96 53.0752 16.825 52.5852 16.825ZM58.702 26.425C58.452 26.425 58.247 26.415 58.087 26.395C57.927 26.375 57.847 26.365 57.847 26.365V24.94C57.847 24.94 57.927 24.945 58.087 24.955C58.247 24.975 58.422 24.985 58.612 24.985C59.162 24.985 59.612 24.88 59.962 24.67C60.322 24.47 60.627 24.115 60.877 23.605L57.847 15.55H59.587L61.732 21.505L63.877 15.55H65.647L62.647 23.41C62.247 24.44 61.737 25.2 61.117 25.69C60.497 26.18 59.692 26.425 58.702 26.425ZM72.3054 23.65C71.4154 23.65 70.6304 23.49 69.9504 23.17C69.2704 22.84 68.7004 22.405 68.2404 21.865C67.7804 21.315 67.4354 20.7 67.2054 20.02C66.9754 19.34 66.8604 18.645 66.8604 17.935C66.8604 17.225 66.9754 16.535 67.2054 15.865C67.4354 15.185 67.7804 14.575 68.2404 14.035C68.7004 13.495 69.2704 13.065 69.9504 12.745C70.6304 12.415 71.4154 12.25 72.3054 12.25C73.2054 12.25 73.9954 12.415 74.6754 12.745C75.3554 13.065 75.9254 13.495 76.3854 14.035C76.8454 14.575 77.1904 15.185 77.4204 15.865C77.6504 16.535 77.7654 17.225 77.7654 17.935C77.7654 18.645 77.6504 19.34 77.4204 20.02C77.1904 20.7 76.8454 21.315 76.3854 21.865C75.9254 22.405 75.3554 22.84 74.6754 23.17C73.9954 23.49 73.2054 23.65 72.3054 23.65ZM72.3054 22.045C73.1054 22.045 73.7754 21.85 74.3154 21.46C74.8554 21.06 75.2654 20.55 75.5454 19.93C75.8254 19.3 75.9654 18.635 75.9654 17.935C75.9654 17.415 75.8854 16.915 75.7254 16.435C75.5654 15.945 75.3304 15.505 75.0204 15.115C74.7204 14.725 74.3404 14.42 73.8804 14.2C73.4304 13.97 72.9054 13.855 72.3054 13.855C71.7154 13.855 71.1904 13.97 70.7304 14.2C70.2804 14.42 69.9004 14.725 69.5904 15.115C69.2904 15.505 69.0604 15.945 68.9004 16.435C68.7404 16.915 68.6604 17.415 68.6604 17.935C68.6604 18.635 68.8004 19.3 69.0804 19.93C69.3604 20.55 69.7704 21.06 70.3104 21.46C70.8504 21.85 71.5154 22.045 72.3054 22.045ZM83.5126 23.65C82.8526 23.65 82.2826 23.565 81.8026 23.395C81.3326 23.225 80.9426 23.01 80.6326 22.75C80.3226 22.48 80.0726 22.195 79.8826 21.895C79.7026 21.595 79.5676 21.315 79.4776 21.055C79.3876 20.785 79.3276 20.565 79.2976 20.395C79.2676 20.225 79.2526 20.14 79.2526 20.14H81.0376C81.0376 20.14 81.0526 20.21 81.0826 20.35C81.1126 20.48 81.1726 20.645 81.2626 20.845C81.3526 21.035 81.4876 21.23 81.6676 21.43C81.8576 21.62 82.1026 21.785 82.4026 21.925C82.7126 22.055 83.1026 22.12 83.5726 22.12C84.2726 22.12 84.8176 21.955 85.2076 21.625C85.6076 21.295 85.8076 20.875 85.8076 20.365C85.8076 19.925 85.6576 19.585 85.3576 19.345C85.0676 19.095 84.6376 18.905 84.0676 18.775L82.5976 18.43C82.0476 18.31 81.5376 18.135 81.0676 17.905C80.6076 17.665 80.2326 17.345 79.9426 16.945C79.6626 16.545 79.5226 16.04 79.5226 15.43C79.5226 14.77 79.6826 14.205 80.0026 13.735C80.3326 13.255 80.7826 12.89 81.3526 12.64C81.9326 12.38 82.5926 12.25 83.3326 12.25C84.0526 12.25 84.6476 12.36 85.1176 12.58C85.5876 12.79 85.9626 13.05 86.2426 13.36C86.5226 13.67 86.7276 13.985 86.8576 14.305C86.9976 14.615 87.0876 14.88 87.1276 15.1C87.1676 15.31 87.1876 15.415 87.1876 15.415H85.4776C85.4776 15.415 85.4576 15.335 85.4176 15.175C85.3776 15.005 85.2826 14.81 85.1326 14.59C84.9926 14.37 84.7726 14.18 84.4726 14.02C84.1826 13.85 83.7876 13.765 83.2876 13.765C82.5976 13.765 82.0826 13.925 81.7426 14.245C81.4026 14.565 81.2326 14.92 81.2326 15.31C81.2326 15.69 81.3776 15.995 81.6676 16.225C81.9576 16.445 82.3476 16.61 82.8376 16.72L84.4126 17.095C84.9926 17.225 85.5176 17.42 85.9876 17.68C86.4676 17.94 86.8476 18.285 87.1276 18.715C87.4076 19.135 87.5476 19.65 87.5476 20.26C87.5476 20.88 87.3926 21.45 87.0826 21.97C86.7826 22.48 86.3326 22.89 85.7326 23.2C85.1326 23.5 84.3926 23.65 83.5126 23.65Z" fill="#16AB64"></path>
</svg>
